<?xml version="1.0" standalone="no"?>
<!DOCTYPE svg PUBLIC "-//W3C//DTD SVG 20010904//EN"
 "http://www.w3.org/TR/2001/REC-SVG-20010904/DTD/svg10.dtd">
<svg version="1.0" xmlns="http://www.w3.org/2000/svg"
 width="932.000000pt" height="932.000000pt" viewBox="0 0 932.000000 932.000000"
 preserveAspectRatio="xMidYMid meet">
<metadata>
Created by potrace 1.11, written by Peter Selinger 2001-2013
</metadata>
<g transform="translate(0.000000,932.000000) scale(0.100000,-0.100000)"
fill="#000000" stroke="none">
<path d="M4 8863 c3 -21 8 -69 11 -108 3 -38 7 -80 9 -93 3 -12 7 -57 11 -100
3 -42 7 -88 10 -102 3 -14 7 -54 11 -90 3 -36 7 -83 10 -105 2 -22 6 -62 8
-90 3 -27 8 -75 11 -105 4 -30 8 -73 10 -95 2 -22 6 -65 10 -95 4 -30 8 -73
10 -95 3 -42 12 -127 20 -205 3 -25 8 -74 11 -110 3 -36 8 -81 10 -100 3 -19
7 -57 9 -85 3 -27 7 -68 10 -90 3 -22 7 -67 10 -100 3 -33 8 -78 10 -100 3
-22 7 -67 10 -100 3 -33 8 -76 11 -95 2 -19 6 -62 9 -95 4 -57 6 -78 21 -187
3 -24 7 -73 9 -110 2 -37 5 -71 8 -75 2 -4 5 -26 6 -48 1 -22 4 -53 6 -70 2
-16 6 -57 9 -90 4 -33 9 -80 12 -105 3 -25 7 -70 10 -100 5 -56 10 -100 18
-180 3 -25 8 -70 11 -100 3 -30 7 -75 10 -100 7 -69 16 -150 21 -205 2 -27 7
-70 10 -95 3 -25 7 -63 9 -85 2 -22 6 -71 10 -110 4 -38 9 -86 10 -105 2 -19
4 -35 4 -35 1 0 4 -19 6 -42 5 -56 15 -160 20 -203 2 -19 7 -66 11 -105 3 -38
8 -83 10 -100 2 -16 6 -57 9 -90 5 -60 10 -106 21 -200 3 -27 7 -70 10 -95 2
-25 6 -65 9 -90 3 -25 7 -70 10 -100 3 -30 7 -75 10 -100 13 -119 25 -240 30
-305 2 -16 4 -30 5 -30 1 0 4 -25 5 -55 2 -30 6 -73 9 -95 13 -103 18 -154 22
-200 2 -27 6 -68 8 -90 3 -22 8 -69 11 -105 3 -36 8 -85 11 -110 3 -25 7 -63
9 -85 2 -22 7 -62 10 -90 3 -27 7 -75 10 -105 2 -30 7 -71 10 -91 3 -21 8 -63
10 -95 2 -33 6 -72 9 -89 4 -27 9 -68 21 -215 10 -106 15 -157 20 -181 3 -15
7 -60 10 -100 2 -41 5 -74 5 -74 3 0 8 -50 11 -100 1 -27 4 -54 7 -59 3 -5 6
-30 7 -55 2 -42 9 -116 21 -216 5 -38 7 -63 19 -186 5 -58 13 -132 21 -199 3
-25 7 -70 9 -100 2 -30 4 -55 5 -55 2 0 3 -8 15 -130 4 -44 9 -89 10 -100 1
-11 3 -26 4 -32 1 -10 379 -13 1854 -13 1752 0 1853 1 1867 18 8 9 20 28 27
42 7 14 30 57 53 95 22 39 48 87 57 108 10 20 21 37 25 37 5 0 8 6 8 13 0 7
11 29 25 50 14 20 23 37 19 37 -4 0 0 8 8 18 8 9 66 109 128 222 63 113 124
223 137 245 13 22 29 52 36 67 6 16 15 28 19 28 4 0 8 4 8 10 0 10 109 211
119 220 4 3 16 25 29 50 12 25 35 68 51 95 32 57 79 141 95 170 6 11 17 28 25
38 8 9 11 17 7 17 -4 0 2 13 13 29 12 16 21 34 21 40 0 6 5 11 10 11 6 0 10 5
10 10 0 6 29 61 64 123 35 61 80 144 101 182 21 39 45 78 53 88 8 9 12 17 8
17 -4 0 2 13 13 29 12 16 21 34 21 39 0 6 3 12 8 14 4 1 16 21 28 43 39 75 93
173 143 260 28 47 53 95 56 106 4 10 11 19 16 19 5 0 9 9 9 19 0 11 4 21 8 23
5 2 24 32 44 68 19 36 45 83 58 105 13 22 33 59 45 82 12 23 28 49 35 58 7 8
9 15 6 15 -4 0 1 12 12 28 17 24 41 66 101 177 9 17 18 32 22 35 3 3 13 21 23
40 9 19 23 44 29 55 7 11 32 56 56 100 46 84 83 149 111 200 9 17 32 57 50 90
19 33 39 63 44 67 6 4 8 8 4 8 -4 0 15 38 42 85 27 47 68 120 91 162 23 43 51
94 62 113 11 19 31 55 45 80 13 25 27 50 31 55 5 6 30 51 56 100 26 50 52 92
56 93 5 2 9 12 9 23 0 10 4 19 8 19 4 0 15 15 23 33 8 17 37 70 63 117 55 97
78 138 129 232 20 36 59 106 87 154 27 48 50 88 50 90 0 1 23 41 50 89 28 48
50 91 50 96 0 5 5 9 10 9 6 0 10 9 10 19 0 11 4 21 9 23 5 2 23 30 40 63 17
33 44 83 61 110 17 28 35 61 40 74 6 13 20 37 31 52 11 16 17 29 13 29 -4 0
-1 8 7 18 8 9 20 28 27 41 27 47 54 97 75 136 12 22 24 42 27 45 3 3 17 28 31
55 14 28 40 74 57 103 17 28 28 52 24 52 -4 0 -2 4 4 8 10 6 61 94 102 177 9
17 18 32 21 35 4 3 18 26 31 53 14 26 29 47 33 47 5 0 6 4 3 9 -3 5 4 24 17
42 12 19 29 48 37 64 8 17 17 32 20 35 3 3 17 27 30 55 14 27 29 54 33 60 5 5
47 80 94 165 47 85 101 182 119 215 19 33 42 76 52 95 9 19 19 37 22 40 11 10
120 211 120 220 0 6 4 10 8 10 4 0 13 12 19 28 7 15 28 54 48 87 19 33 38 67
42 75 4 8 40 73 80 144 40 71 73 131 73 133 0 3 9 18 21 34 11 16 17 29 12 29
-4 0 -3 4 2 8 12 8 52 76 68 115 6 15 15 27 19 27 4 0 8 4 8 9 0 5 17 40 39
78 21 37 53 95 71 128 18 33 41 75 52 93 l20 32 -1584 0 -1584 0 -44 -84 c-23
-47 -42 -88 -41 -92 2 -4 -1 -10 -6 -13 -5 -3 -83 -154 -174 -336 -90 -181
-168 -333 -172 -336 -5 -3 -9 -10 -8 -15 0 -9 -290 -595 -299 -604 -10 -10
-931 -1859 -930 -1866 1 -4 -2 -10 -7 -13 -5 -3 -38 -64 -72 -136 -35 -71 -69
-133 -75 -137 -6 -4 -7 -8 -3 -8 9 0 -32 -81 -46 -91 -5 -3 -8 -9 -8 -13 2
-13 -43 -106 -51 -106 -4 0 -8 -6 -8 -12 0 -16 -352 -722 -363 -726 -4 -2 -7
-9 -7 -15 0 -8 -74 -161 -140 -287 -10 -19 -47 -93 -72 -143 -10 -20 -23 -47
-28 -60 -6 -12 -14 -29 -20 -37 -5 -8 -32 -62 -61 -120 -80 -165 -174 -348
-179 -354 -3 -3 -6 25 -7 62 -5 191 -13 333 -18 341 -3 5 -1 12 5 16 6 4 7 11
3 18 -4 6 -8 43 -9 81 -1 39 -5 148 -8 241 -4 94 -9 226 -11 295 -2 69 -7 179
-10 245 -7 143 -13 282 -19 463 -3 73 -8 137 -11 142 -3 5 -1 11 5 15 6 4 7
11 4 17 -3 5 -8 62 -10 126 -2 65 -6 171 -8 237 -3 66 -8 181 -11 255 -3 74
-7 187 -10 250 -3 63 -8 185 -11 270 -3 85 -7 193 -9 240 -2 47 -6 164 -9 260
-3 96 -8 216 -11 265 -3 50 -7 162 -11 250 -11 309 -13 383 -29 760 -11 264
-16 383 -19 512 -2 72 -6 135 -8 140 -2 4 -3 29 -3 56 l1 47 -1558 0 -1559 0
5 -37z"/>
</g>
</svg>
