<?xml version="1.0" standalone="no"?>
<!DOCTYPE svg PUBLIC "-//W3C//DTD SVG 20010904//EN"
 "http://www.w3.org/TR/2001/REC-SVG-20010904/DTD/svg10.dtd">
<svg version="1.0" xmlns="http://www.w3.org/2000/svg"
 width="474.000000pt" height="474.000000pt" viewBox="0 0 474.000000 474.000000"
 preserveAspectRatio="xMidYMid meet">
<metadata>
Created by potrace 1.11, written by Peter Selinger 2001-2013
</metadata>
<g transform="translate(0.000000,474.000000) scale(0.100000,-0.100000)"
fill="#000000" stroke="none">
<path d="M0 2370 l0 -2370 155 0 c117 0 155 3 155 13 -3 199 -23 528 -37 591
-15 72 -16 106 -6 345 l11 266 44 129 43 129 306 -2 307 -2 34 40 c33 39 38
41 90 41 30 0 82 3 115 6 l61 7 39 136 39 136 108 10 108 10 -26 24 c-29 27
-50 83 -43 111 3 12 -10 39 -35 72 -153 204 -236 382 -258 558 -6 47 -20 153
-31 235 -21 161 -36 522 -25 597 11 75 56 131 155 192 319 197 802 358 1237
410 160 20 507 40 566 33 63 -8 104 -31 124 -68 31 -61 87 -254 86 -299 -1
-25 -21 -104 -47 -180 -51 -148 -51 -145 -20 -317 l17 -92 37 16 c123 55 307
71 443 39 260 -61 474 -274 533 -530 20 -87 20 -235 0 -322 -21 -90 -84 -209
-151 -283 l-56 -61 12 -107 c8 -66 18 -112 26 -118 11 -8 44 -219 44 -287 0
-16 13 -18 128 -18 l127 0 76 -183 77 -182 11 -173 12 -173 -31 -54 -31 -54
-6 -320 -6 -321 111 0 112 0 0 2370 0 2370 -2370 0 -2370 0 0 -2370z m536
2144 l21 -37 22 37 c19 30 29 37 50 34 25 -3 26 -6 26 -58 0 -42 -3 -55 -15
-55 -10 0 -16 12 -18 33 -4 41 -14 41 -35 -3 -9 -19 -22 -35 -30 -35 -7 0 -21
16 -31 35 -11 19 -23 35 -28 35 -5 0 -7 -4 -3 -10 9 -14 -6 -60 -20 -60 -8 0
-13 20 -14 60 -2 59 -1 60 26 60 22 0 33 -9 49 -36z m274 -20 c34 -59 34 -74
-3 -56 -35 17 -86 20 -98 5 -12 -13 -39 -18 -39 -7 0 4 14 31 31 60 42 74 66
74 109 -2z m186 -2 c2 -56 -11 -76 -31 -49 -15 21 -71 22 -79 2 -3 -8 -12 -15
-21 -15 -12 0 -15 13 -15 60 l0 61 73 -3 72 -3 1 -53z m64 18 c11 -22 22 -40
25 -40 3 0 14 18 25 40 11 22 27 40 35 40 20 0 19 -2 -10 -61 -41 -79 -58 -77
-110 14 -26 45 -26 47 -6 47 14 0 27 -13 41 -40z m150 -20 c0 -49 -3 -58 -15
-54 -11 5 -15 21 -15 60 0 41 4 54 15 54 12 0 15 -13 15 -60z m114 25 c15 -19
31 -35 37 -35 5 0 9 16 9 35 0 24 5 35 15 35 11 0 15 -13 15 -54 0 -50 -2 -54
-25 -59 -20 -3 -33 4 -59 34 -18 22 -36 39 -39 39 -3 0 -7 -17 -9 -37 -5 -57
-23 -41 -26 22 -3 55 -3 55 26 55 22 0 37 -9 56 -35z m264 23 c-3 -7 -14 -14
-26 -16 -17 -3 -21 -11 -24 -45 -4 -59 -32 -58 -36 1 -3 37 -6 42 -28 42 -15
0 -24 6 -24 15 0 12 15 15 71 15 52 0 70 -3 67 -12z m47 -8 c5 -16 15 -20 46
-20 32 0 39 3 39 20 0 11 7 20 15 20 12 0 15 -13 15 -60 0 -47 -3 -60 -15 -60
-9 0 -15 9 -15 25 0 22 -4 25 -39 25 -33 0 -40 -4 -43 -22 -2 -13 -10 -23 -18
-23 -11 0 -16 14 -18 58 -2 45 0 57 12 57 8 0 18 -9 21 -20z m270 5 c0 -5 -21
-11 -48 -13 -56 -4 -54 -22 4 -22 21 0 39 -4 39 -10 0 -5 -18 -10 -39 -10 -22
0 -43 -4 -46 -10 -4 -6 13 -10 44 -10 39 0 51 -4 51 -15 0 -12 -14 -15 -65
-15 l-65 0 0 60 0 61 63 -3 c34 -2 62 -7 62 -13z m193 3 c7 -7 12 -21 12 -33
0 -31 -19 -45 -61 -45 -24 0 -39 -5 -43 -15 -3 -8 -12 -15 -21 -15 -12 0 -15
13 -15 60 l0 60 58 0 c32 0 63 -5 70 -12z m141 -45 c33 -59 33 -75 1 -55 -24
14 -100 16 -100 2 0 -5 -9 -10 -21 -10 -11 0 -19 3 -17 8 60 132 89 144 137
55z m184 40 c3 -10 5 -37 5 -60 1 -32 -3 -43 -14 -43 -8 0 -17 7 -20 15 -9 21
-74 21 -74 -1 0 -9 -7 -14 -17 -12 -14 2 -19 15 -21 61 l-3 57 70 0 c58 0 70
-3 74 -17z m160 -41 c32 -58 30 -72 -8 -52 -29 15 -88 16 -93 1 -2 -6 -12 -11
-23 -11 -18 0 -17 5 11 61 27 53 34 60 57 57 19 -2 33 -16 56 -56z m124 23
c15 -19 31 -35 36 -35 4 0 7 16 7 35 0 24 5 35 15 35 12 0 15 -13 15 -60 0
-57 -1 -60 -24 -60 -17 0 -35 13 -58 42 l-33 42 -5 -39 c-3 -27 -10 -40 -20
-40 -11 0 -16 14 -18 58 l-3 57 30 0 c22 0 37 -9 58 -35z m237 29 c19 -7 22
-84 4 -102 -18 -18 -113 -15 -132 4 -19 18 -21 75 -4 92 12 12 104 17 132 6z
m68 -21 c4 -78 3 -88 -14 -91 -16 -3 -18 5 -18 57 0 48 3 61 15 61 9 0 16 -10
17 -27z m178 8 c15 -29 12 -67 -6 -85 -11 -11 -35 -16 -80 -16 l-64 0 0 60 0
60 70 0 c58 0 71 -3 80 -19z m191 -31 c15 -25 28 -51 28 -57 1 -17 -24 -16
-38 1 -13 16 -51 13 -88 -6 -37 -19 -39 0 -8 58 38 70 65 71 106 4z m133 8
l36 -43 0 43 c0 36 3 43 18 40 14 -3 17 -14 17 -58 0 -50 -2 -55 -24 -58 -18
-3 -33 7 -62 40 l-38 43 -1 -42 c0 -65 -26 -57 -33 10 -6 61 -3 67 28 67 15 0
36 -15 59 -42z m244 30 c7 -7 12 -29 12 -50 0 -48 -21 -60 -98 -56 l-57 3 -3
58 -3 57 69 0 c39 0 73 -5 80 -12z m168 -33 c1 -22 3 -46 5 -54 2 -8 -4 -17
-13 -19 -11 -2 -18 2 -18 12 0 22 -68 22 -76 1 -4 -8 -12 -15 -20 -15 -10 0
-14 15 -14 60 l0 61 68 -3 67 -3 1 -40z m172 33 c7 -7 12 -28 12 -48 0 -49
-15 -60 -80 -60 -31 0 -61 5 -68 12 -16 16 -16 80 0 96 16 16 120 16 136 0z
m62 -48 c0 -44 -4 -60 -14 -60 -9 0 -15 16 -19 47 -6 54 -1 73 19 73 10 0 14
-15 14 -60z m167 52 c6 -4 14 -23 18 -43 10 -53 -11 -69 -91 -69 l-64 0 0 60
0 60 63 0 c34 0 67 -4 74 -8z m-3947 -31 l-34 -29 37 -22 c21 -12 36 -25 33
-27 -2 -3 -25 7 -51 22 -25 15 -44 30 -41 32 15 15 72 52 81 52 6 0 -6 -12
-25 -28z m4094 -19 c2 -4 -16 -20 -40 -35 -25 -15 -43 -23 -39 -17 3 6 19 17
36 25 37 20 37 29 -1 45 -17 7 -33 17 -36 22 -3 5 12 0 34 -11 22 -11 43 -24
46 -29z m-4063 4 c-9 -11 -9 -15 1 -19 7 -2 10 -8 6 -12 -4 -4 -16 0 -28 8
-21 14 -21 16 -3 26 26 15 38 13 24 -3z m4009 -6 c0 -4 -6 -13 -14 -19 -11
-10 -14 -7 -12 12 0 15 6 23 14 20 6 -3 12 -9 12 -13z m-2900 -100 c0 -5 -11
-10 -25 -10 -23 0 -25 -4 -25 -45 0 -25 -4 -45 -10 -45 -5 0 -10 20 -10 45 0
41 -2 45 -25 45 -14 0 -25 5 -25 10 0 6 27 10 60 10 33 0 60 -4 60 -10z m140
-51 c0 -27 -4 -49 -10 -49 -5 0 -10 9 -10 20 0 17 -7 20 -45 20 -38 0 -45 -3
-45 -20 0 -11 -4 -20 -10 -20 -5 0 -10 23 -10 50 0 28 5 50 10 50 6 0 10 -9
10 -20 0 -17 7 -20 45 -20 42 0 45 2 45 26 0 14 4 23 10 19 6 -3 10 -28 10
-56z m120 51 c0 -5 -18 -10 -40 -10 -29 0 -40 -4 -40 -15 0 -11 11 -15 40 -15
22 0 40 -5 40 -10 0 -6 -10 -10 -22 -9 -42 4 -58 -1 -58 -16 0 -11 13 -15 48
-17 l47 -1 -45 -6 c-66 -9 -70 -6 -70 55 l0 54 50 0 c28 0 50 -4 50 -10z m179
-4 c7 -8 11 -32 9 -53 l-3 -38 -62 -3 -63 -3 0 56 0 55 54 0 c34 0 58 -5 65
-14z m149 5 c9 -5 12 -24 10 -52 l-3 -44 -59 0 c-55 0 -60 2 -68 26 -5 16 -5
37 1 52 9 24 16 27 58 27 27 0 54 -4 61 -9z m46 -33 c2 -18 4 -39 5 -46 1 -9
14 -12 44 -10 l42 3 6 50 c3 28 7 41 8 30 1 -11 4 -29 6 -40 9 -45 -3 -55 -65
-55 l-58 0 -4 51 c-3 48 0 64 10 55 2 -2 5 -19 6 -38z m243 30 c5 -7 9 -31 9
-53 l-1 -40 -60 0 -60 0 -3 39 c-2 21 -1 44 2 52 7 18 100 19 113 2z m45 -35
c3 -48 3 -48 43 -53 l40 -6 -48 -5 c-27 -2 -50 -2 -53 0 -8 9 -4 111 5 111 6
0 11 -21 13 -47z m198 37 c0 -5 -20 -10 -45 -10 -33 0 -45 -4 -45 -15 0 -11
12 -15 47 -15 69 0 47 -12 -35 -19 -31 -2 -2 -26 39 -32 44 -6 44 -6 -13 -7
l-58 -2 0 48 c0 27 3 52 7 55 10 11 103 8 103 -3z m68 -29 c-15 -5 -19 4 -11
24 6 18 7 18 13 -1 4 -10 3 -21 -2 -23z m144 -11 c4 -25 4 -48 -1 -53 -6 -6
-34 -10 -63 -11 l-53 -1 -3 58 -3 58 58 -3 58 -3 7 -45z m33 20 c-6 -9 -9 -9
-16 1 -10 17 0 34 13 21 6 -6 7 -16 3 -22z m207 12 c7 -7 8 -15 3 -19 -4 -5
-10 -2 -12 5 -7 18 -83 16 -83 -2 0 -11 14 -16 48 -18 41 -3 47 -6 50 -27 2
-13 -2 -28 -10 -32 -15 -10 -69 -12 -92 -3 -17 7 -22 34 -6 34 6 0 10 -4 10
-10 0 -5 18 -10 40 -10 29 0 40 4 40 15 0 10 -10 15 -34 15 -47 0 -66 9 -66
31 0 34 84 49 112 21z m38 -48 c0 -34 -4 -53 -10 -49 -5 3 -10 28 -10 56 0 27
5 49 10 49 6 0 10 -25 10 -56z m148 10 c4 -53 -12 -66 -75 -62 l-48 3 -3 53
-3 53 63 -3 63 -3 3 -41z m83 37 c-62 -8 -67 -31 -7 -31 25 0 46 -4 46 -10 0
-5 -18 -10 -40 -10 -29 0 -40 -4 -40 -15 0 -11 11 -15 40 -15 22 0 40 -4 40
-10 0 -5 -22 -10 -50 -10 l-50 0 0 55 0 55 53 -2 52 -1 -44 -6z m-401 -41 c0
-5 -13 -10 -30 -10 -16 0 -30 5 -30 10 0 6 14 10 30 10 17 0 30 -4 30 -10z"/>
<path d="M747 4513 c-12 -12 -7 -33 8 -33 17 0 19 9 7 28 -5 7 -11 9 -15 5z"/>
<path d="M890 4505 c0 -10 11 -15 35 -15 24 0 35 5 35 15 0 10 -11 15 -35 15
-24 0 -35 -5 -35 -15z"/>
<path d="M2005 4510 c-3 -5 0 -13 9 -16 21 -8 61 -1 61 11 0 14 -62 19 -70 5z"/>
<path d="M2171 4501 c-10 -18 -9 -21 9 -21 22 0 25 7 11 29 -7 11 -11 9 -20
-8z"/>
<path d="M2320 4505 c0 -13 8 -16 38 -13 20 2 37 8 37 13 0 6 -17 11 -37 13
-30 3 -38 0 -38 -13z"/>
<path d="M2516 4505 c-8 -22 -3 -28 19 -23 14 3 14 5 2 22 -13 18 -14 18 -21
1z"/>
<path d="M2840 4489 c0 -29 1 -30 43 -27 38 3 42 6 45 31 3 26 2 27 -42 27
-45 0 -46 -1 -46 -31z"/>
<path d="M3080 4490 c0 -28 2 -30 40 -30 38 0 40 2 40 30 0 28 -2 30 -40 30
-38 0 -40 -2 -40 -30z"/>
<path d="M3316 4504 c-9 -23 -8 -24 14 -24 23 0 26 13 6 29 -11 9 -15 8 -20
-5z"/>
<path d="M3650 4490 c0 -28 2 -30 39 -30 33 0 39 3 43 25 7 32 2 35 -44 35
-36 0 -38 -2 -38 -30z"/>
<path d="M3820 4504 c0 -11 9 -14 37 -12 52 4 56 28 4 28 -30 0 -41 -4 -41
-16z"/>
<path d="M3984 4505 c-12 -30 4 -45 46 -45 38 0 40 2 40 30 0 28 -2 30 -40 30
-27 0 -43 -5 -46 -15z"/>
<path d="M4224 4505 c-12 -30 4 -45 46 -45 38 0 40 2 40 30 0 28 -2 30 -40 30
-27 0 -43 -5 -46 -15z"/>
<path d="M1860 4339 l0 -40 43 3 c41 3 42 4 45 41 l3 37 -45 0 -46 0 0 -41z"/>
<path d="M2007 4373 c-12 -11 -7 -50 7 -62 8 -7 30 -11 48 -9 30 3 33 6 36 41
l3 37 -44 0 c-24 0 -47 -3 -50 -7z"/>
<path d="M2303 4368 c2 -8 20 -13 42 -13 22 0 40 5 43 13 2 8 -10 12 -43 12
-33 0 -45 -4 -42 -12z"/>
<path d="M2305 4330 c-12 -19 10 -32 46 -28 48 4 46 32 -3 36 -20 2 -39 -2
-43 -8z"/>
<path d="M2750 4365 c0 -11 11 -15 40 -15 29 0 40 4 40 15 0 11 -11 15 -40 15
-29 0 -40 -4 -40 -15z"/>
<path d="M2750 4314 c0 -12 9 -14 42 -12 59 4 63 28 4 28 -35 0 -46 -4 -46
-16z"/>
<path d="M3170 4340 l0 -40 44 0 c38 0 44 3 48 24 8 39 -8 56 -52 56 -40 0
-40 0 -40 -40z"/>
<path d="M2670 4049 c-376 -37 -755 -134 -1066 -272 -98 -43 -193 -92 -164
-84 8 2 40 12 72 21 73 21 279 56 330 56 22 0 70 13 106 29 177 77 527 188
715 227 45 10 86 21 92 26 5 4 7 7 5 7 -3 -1 -43 -5 -90 -10z"/>
<path d="M2925 4049 c-219 -23 -550 -110 -840 -221 -159 -60 -172 -68 -196
-123 l-19 -44 24 -100 c29 -116 45 -151 83 -181 37 -29 73 -24 351 41 118 28
216 48 219 45 10 -10 23 -87 53 -321 47 -371 92 -679 100 -688 4 -4 28 -3 53
4 46 11 47 12 42 48 -2 20 -7 90 -10 156 -14 307 -35 784 -35 820 l0 40 118
28 c64 15 184 43 267 62 82 20 153 41 157 48 18 28 7 116 -27 221 -20 59 -40
117 -45 127 -26 48 -104 58 -295 38z"/>
<path d="M1755 3743 c-81 -11 -236 -47 -298 -68 -79 -28 -198 -99 -240 -142
-15 -16 -32 -45 -37 -64 -13 -45 -13 -314 1 -459 15 -166 57 -456 75 -519 34
-119 112 -261 222 -408 49 -64 124 -119 550 -410 159 -109 167 -113 218 -113
29 0 55 4 58 9 4 5 9 36 12 68 l6 58 -46 28 c-98 61 -192 198 -235 342 -11 39
-32 151 -46 251 -26 190 -54 349 -101 576 -16 75 -25 140 -21 144 21 21 61
-25 158 -180 57 -91 106 -166 110 -166 4 0 33 70 65 155 42 114 61 154 71 150
23 -8 191 -159 192 -172 1 -6 -56 -68 -125 -137 -84 -83 -123 -129 -119 -138
29 -50 181 -284 190 -290 31 -23 66 -6 147 68 103 95 118 112 113 127 -2 7
-25 165 -50 352 -75 554 -86 630 -93 637 -4 4 -110 -18 -237 -48 -126 -30
-246 -54 -267 -54 -77 0 -125 72 -163 242 -17 77 -16 86 10 151 6 15 1 17 -41
16 -27 -1 -62 -4 -79 -6z m-194 -422 c24 -16 68 -50 96 -77 l53 -49 34 -400
c47 -536 49 -569 42 -593 -12 -37 -40 -35 -133 11 -87 45 -295 176 -307 195
-12 19 -46 324 -46 410 0 111 16 302 31 367 34 149 126 203 230 136z m569
-271 c25 -25 25 -42 0 -65 -17 -15 -24 -16 -45 -7 -42 19 -28 90 18 92 4 0 16
-9 27 -20z m334 -483 c12 -9 17 -23 14 -42 -2 -25 -8 -30 -35 -33 -25 -3 -35
2 -49 23 -16 24 -16 27 1 45 21 23 44 25 69 7z"/>
<path d="M1424 3311 c-37 -22 -74 -102 -81 -175 l-5 -51 96 -69 c56 -41 98
-78 101 -90 2 -12 9 -124 15 -251 6 -126 13 -267 17 -313 l6 -83 51 -30 c60
-34 73 -36 81 -9 4 14 15 20 36 20 16 0 29 3 29 6 0 4 -11 126 -25 273 -13
146 -29 329 -35 406 -12 166 -21 235 -28 235 -3 0 -13 -7 -22 -15 -13 -12 -15
-26 -8 -87 24 -211 66 -784 59 -791 -12 -12 -87 1 -99 16 -6 7 -22 156 -36
332 -14 176 -29 353 -32 392 -6 67 -9 75 -41 103 -18 16 -40 30 -48 30 -8 0
-15 5 -15 10 0 19 37 10 77 -19 l41 -29 50 34 c28 18 53 38 56 43 7 10 -68 76
-124 110 -43 26 -76 27 -116 2z"/>
<path d="M1581 3111 l-24 -18 27 -324 c41 -491 35 -451 75 -461 18 -5 35 -8
36 -6 2 2 -12 185 -31 408 -18 223 -34 408 -34 413 0 13 -24 7 -49 -12z"/>
<path d="M1335 3043 c-17 -43 -17 -290 -1 -423 26 -211 19 -194 119 -263 48
-33 89 -58 92 -55 3 2 -2 123 -10 269 -8 145 -15 285 -15 310 0 45 -2 48 -57
90 -32 23 -72 53 -89 66 -29 22 -32 22 -39 6z"/>
<path d="M1723 2224 c-3 -8 -1 -20 6 -27 14 -14 47 15 37 32 -10 16 -36 13
-43 -5z"/>
<path d="M2080 3021 c0 -24 25 -34 40 -16 15 18 5 35 -21 35 -12 0 -19 -7 -19
-19z"/>
<path d="M2414 2546 c-8 -21 3 -36 27 -36 15 0 20 6 17 22 -4 27 -35 37 -44
14z"/>
<path d="M3235 3620 c-16 -4 -129 -32 -249 -61 l-219 -53 7 -115 c3 -63 8
-116 10 -119 4 -4 416 113 420 120 1 1 17 50 35 108 19 58 36 111 38 118 6 13
1 14 -42 2z"/>
<path d="M2987 3307 l-208 -62 7 -120 c3 -66 8 -122 10 -124 1 -1 17 24 33 58
17 34 35 61 38 61 4 0 46 -39 94 -86 l86 -85 64 61 c35 34 82 73 105 87 l41
26 -17 86 c-10 47 -21 103 -24 124 -4 20 -10 37 -14 36 -4 0 -101 -28 -215
-62z m53 -68 c27 -49 -21 -99 -61 -63 -23 21 -24 47 -3 68 22 22 51 20 64 -5z"/>
<path d="M2991 3226 c-14 -17 -7 -36 14 -36 22 0 29 20 13 36 -13 13 -16 13
-27 0z"/>
<path d="M3503 3180 c-152 -23 -277 -86 -382 -191 -173 -174 -236 -412 -175
-654 53 -207 229 -393 440 -465 64 -22 74 -24 74 -11 0 5 -21 14 -47 21 -77
19 -197 87 -267 151 -78 72 -137 162 -173 266 -24 69 -27 93 -27 208 0 115 3
139 27 212 55 164 180 309 330 383 122 59 189 73 327 68 97 -5 127 -10 191
-35 245 -96 407 -300 438 -553 16 -122 -9 -270 -61 -375 -26 -52 -96 -145
-109 -145 -5 0 8 24 30 53 80 105 131 261 131 394 -1 150 -75 334 -177 440
-75 78 -180 145 -279 179 -68 24 -95 28 -194 28 -99 0 -126 -4 -195 -28 -115
-39 -180 -80 -260 -160 -79 -80 -142 -190 -171 -296 -20 -78 -23 -221 -5 -305
18 -86 82 -211 143 -279 60 -67 172 -145 254 -175 95 -36 89 -46 89 162 l0
182 -47 44 c-161 148 -134 392 53 496 49 27 63 30 144 30 81 0 95 -3 144 -30
30 -16 70 -49 90 -72 22 -27 44 -43 58 -43 12 0 24 -4 28 -9 5 -9 145 -632
145 -647 0 -14 53 42 95 101 88 123 120 243 113 412 -4 87 -11 123 -35 189
-67 180 -190 313 -366 394 -114 54 -263 78 -374 60z"/>
<path d="M2826 3012 c-21 -43 -37 -87 -35 -97 3 -14 27 -26 98 -48 51 -15 94
-27 95 -25 1 2 14 21 28 44 l26 41 -82 82 c-45 44 -84 81 -86 81 -3 0 -22 -36
-44 -78z"/>
<path d="M1890 3006 c0 -2 15 -78 34 -168 39 -183 65 -334 96 -548 12 -80 27
-171 35 -203 33 -132 123 -267 228 -341 l57 -40 423 103 c232 57 429 107 438
110 14 5 8 13 -26 39 l-43 33 -63 -24 c-79 -30 -242 -73 -329 -87 -126 -20
-344 -39 -355 -30 -5 5 -26 54 -45 110 l-35 101 24 18 c62 47 398 169 553 200
l56 12 -9 32 c-36 124 -31 297 12 417 31 85 32 81 -54 108 -43 13 -81 21 -84
19 -2 -3 0 -104 7 -224 l11 -218 -27 -20 c-15 -11 -52 -42 -83 -69 -68 -59
-116 -82 -208 -98 -62 -10 -74 -10 -95 4 -14 9 -64 80 -113 157 -48 78 -91
141 -94 141 -3 0 -40 -34 -81 -75 -41 -41 -76 -72 -78 -71 -2 2 17 58 42 124
l45 121 -74 128 c-113 196 -143 243 -155 243 -5 0 -10 -2 -10 -4z m953 -376
c3 -13 10 -18 21 -14 9 3 16 1 16 -5 0 -18 -29 -25 -45 -11 -16 13 -21 50 -6
50 5 0 11 -9 14 -20z"/>
<path d="M2267 2953 c-3 -10 -43 -121 -90 -248 -47 -126 -84 -232 -82 -234 5
-4 347 345 346 353 -1 7 -157 146 -164 146 -2 0 -7 -8 -10 -17z"/>
<path d="M3528 2806 c-90 -25 -165 -92 -194 -173 -19 -53 -17 -149 3 -208 19
-53 113 -160 121 -137 2 6 -10 24 -28 38 -17 15 -42 48 -55 74 -55 109 -38
227 45 311 104 104 255 105 370 2 53 -48 73 -52 45 -9 -56 85 -198 133 -307
102z"/>
<path d="M3700 2635 l-205 -20 -3 -28 c-3 -24 0 -28 15 -23 10 3 104 12 208
22 105 9 194 20 199 25 6 5 6 15 0 26 -9 18 -17 18 -214 -2z"/>
<path d="M3690 2559 c-91 -10 -175 -18 -187 -18 l-23 -1 0 -285 c0 -221 3
-285 13 -285 6 0 113 11 237 25 124 14 228 25 233 25 4 0 7 -7 7 -15 0 -8 -8
-15 -17 -15 -43 -1 -464 -48 -469 -53 -3 -3 2 -72 11 -153 20 -181 23 -186
110 -174 33 5 139 16 235 24 240 22 237 21 243 54 11 52 -25 290 -89 584 -35
163 -64 299 -64 302 0 9 -57 5 -240 -15z m-153 -151 c-4 -62 -7 -177 -7 -255
0 -99 -3 -143 -11 -143 -8 0 -10 33 -5 113 3 61 6 176 6 255 0 100 3 142 12
142 8 0 9 -30 5 -112z m33 -118 c0 -130 -4 -220 -9 -220 -6 0 -8 56 -6 138 2
75 4 174 5 220 0 45 2 82 5 82 3 0 5 -99 5 -220z m39 -3 c-1 -107 -4 -172 -9
-157 -12 38 -12 352 0 345 6 -4 10 -76 9 -188z m39 5 c-1 -128 -2 -137 -8 -72
-12 119 -11 232 0 225 6 -4 9 -64 8 -153z m47 6 c4 -70 3 -108 -3 -108 -10 0
-23 196 -14 213 7 15 10 2 17 -105z m28 -460 c3 -32 2 -58 -2 -58 -9 0 -21 76
-20 124 1 47 15 5 22 -66z m-99 -31 c5 -46 4 -67 -3 -67 -6 0 -11 13 -11 29 0
15 -2 57 -5 92 -7 83 9 39 19 -54z m50 21 c4 -37 2 -58 -4 -58 -5 0 -10 10
-10 23 0 12 -2 47 -5 77 -7 73 10 35 19 -42z m-140 -49 c13 -113 13 -140 2
-128 -6 6 -26 178 -26 223 0 69 9 33 24 -95z m40 54 c4 -43 9 -93 12 -110 4
-19 2 -33 -4 -33 -5 0 -12 30 -16 68 -4 37 -10 86 -13 110 -3 25 -2 42 4 42 6
0 13 -35 17 -77z"/>
<path d="M2722 2430 c-66 -15 -58 -31 11 -20 53 8 89 31 47 29 -14 -1 -40 -5
-58 -9z"/>
<path d="M2676 2378 c-26 -6 -57 -25 -92 -58 -56 -53 -50 -64 18 -32 34 16
124 90 116 96 -1 2 -21 -1 -42 -6z"/>
<path d="M2795 2235 c-196 -51 -471 -164 -462 -189 2 -6 17 -48 33 -93 l28
-83 62 0 c145 0 404 46 572 102 72 24 90 33 82 43 -9 11 -28 8 -98 -16 -151
-51 -528 -114 -575 -96 -21 8 -60 112 -53 141 4 16 23 32 63 51 75 35 326 118
426 140 42 9 77 21 77 26 0 13 -14 11 -155 -26z"/>
<path d="M2813 2200 c-164 -43 -378 -125 -402 -154 -9 -10 -8 -25 5 -62 9 -27
19 -53 24 -57 9 -10 194 7 322 28 76 14 290 70 311 82 4 2 -8 26 -26 51 -19
26 -46 68 -61 95 -16 27 -35 47 -44 47 -10 -1 -68 -14 -129 -30z"/>
<path d="M1524 1974 c3 -9 6 -22 6 -30 0 -8 16 -31 35 -52 44 -49 33 -62 -54
-63 -37 0 -84 -3 -106 -7 -36 -7 -40 -10 -47 -47 -18 -87 -70 -235 -84 -243
-18 -10 -57 -168 -74 -297 -6 -44 -15 -111 -20 -150 -20 -149 -9 -652 21 -958
l12 -127 89 0 89 0 -6 68 c-4 57 -19 224 -51 585 l-6 67 132 0 133 0 41 -42
42 -43 18 -255 c10 -140 21 -257 23 -260 13 -13 -34 605 -47 631 -17 30 -2 76
32 100 30 22 32 22 469 16 l440 -5 16 24 c16 25 47 31 73 14 12 -8 15 -41 16
-192 1 -101 6 -232 12 -293 7 -60 17 -179 24 -262 l12 -153 74 0 c65 0 73 2
68 18 -2 9 -15 167 -27 350 -20 277 -21 334 -10 341 7 5 74 12 148 16 l135 7
34 -34 34 -34 15 -204 c8 -113 18 -262 21 -332 l7 -128 170 0 c150 0 168 2
163 16 -3 9 -6 22 -6 30 0 11 -16 14 -69 14 -58 0 -71 3 -75 18 -15 52 -37
375 -38 566 -1 199 13 522 28 633 12 96 -28 26 -61 -107 -9 -36 -23 -90 -31
-121 -18 -70 -18 -67 9 -71 22 -3 22 -7 34 -218 14 -264 15 -315 6 -306 -5 4
-15 119 -23 254 l-15 247 -95 0 c-52 0 -286 -6 -520 -14 -325 -10 -498 -11
-735 -2 -298 10 -786 39 -794 47 -16 15 46 14 336 -6 482 -34 1370 -31 1709 6
l51 5 16 53 c30 94 33 91 -89 88 -58 -2 -114 0 -123 5 -9 5 35 10 109 13 l125
5 28 88 c23 70 33 90 53 97 13 5 24 18 24 28 0 10 7 44 15 76 12 44 13 62 4
72 -16 20 -29 8 -29 -27 0 -49 -47 -135 -97 -178 -133 -113 -405 -230 -614
-263 -115 -18 -530 -18 -624 1 -197 38 -327 86 -432 160 -122 86 -173 163
-172 261 0 90 18 201 39 245 25 51 85 123 95 113 4 -4 -2 -30 -14 -57 -65
-153 37 -272 309 -359 182 -58 190 -58 331 -17 68 21 162 48 209 62 47 13 137
40 201 59 111 33 121 34 199 25 76 -8 92 -6 218 24 145 35 150 41 48 60 -20 4
-36 11 -36 16 0 12 0 12 92 -12 90 -22 90 -22 108 41 15 53 13 59 -24 77 -37
17 -8 24 -726 -162 -74 -19 -158 -35 -186 -35 -28 0 -65 -5 -83 -11 -17 -6
-46 -8 -65 -5 -20 4 -157 93 -356 231 -177 124 -327 225 -332 225 -6 0 -7 -7
-4 -16z m136 -844 c0 -6 -58 -11 -152 -11 -84 -1 -180 -3 -213 -5 -67 -3 -89
1 -80 16 8 14 445 14 445 0z"/>
<path d="M2801 1800 c-244 -60 -447 -112 -451 -117 -5 -4 -10 -30 -12 -58 l-3
-50 41 -3 c28 -2 195 37 525 123 266 70 490 130 498 134 10 6 3 12 -25 21 -21
7 -59 23 -84 35 l-45 23 -444 -108z"/>
<path d="M3402 1806 c-35 -8 -44 -15 -51 -40 -6 -26 -3 -37 24 -71 18 -22 38
-51 45 -64 16 -30 22 -19 39 64 14 66 12 117 -4 120 -5 1 -29 -3 -53 -9z"/>
<path d="M3300 1765 c7 -8 16 -15 20 -15 4 0 10 7 14 15 4 11 -2 15 -21 15
-21 0 -24 -2 -13 -15z"/>
<path d="M1574 1735 c-22 -33 -44 -111 -44 -155 0 -92 115 -226 250 -292 194
-94 351 -122 675 -122 210 0 253 3 343 22 201 44 375 127 443 213 43 55 78
144 79 201 0 26 5 50 11 54 9 5 11 -13 7 -68 -14 -213 -206 -359 -558 -424
-120 -22 -512 -26 -635 -6 -283 47 -494 149 -584 283 -41 61 -41 61 -41 28 0
-81 101 -205 224 -274 94 -52 274 -111 398 -129 201 -30 527 -17 703 29 111
29 260 90 355 145 155 91 211 161 218 276 5 67 -15 119 -61 162 l-24 23 -17
-46 c-48 -125 -301 -249 -638 -311 -115 -21 -372 -29 -490 -15 -194 23 -421
105 -516 186 -69 60 -106 157 -83 218 13 34 7 35 -15 2z m1806 -120 c0 -8 -4
-15 -10 -15 -5 0 -10 7 -10 15 0 8 5 15 10 15 6 0 10 -7 10 -15z m-61 -224
c18 -11 5 -31 -20 -31 -18 0 -26 20 -12 33 8 9 15 9 32 -2z m-1701 -50 c3 -8
-1 -12 -9 -9 -7 2 -15 10 -17 17 -3 8 1 12 9 9 7 -2 15 -10 17 -17z m311 -165
c7 -9 8 -17 2 -20 -14 -9 -41 4 -41 20 0 18 24 18 39 0z m1041 -12 c0 -18 -24
-18 -39 0 -9 11 -9 15 1 19 19 6 38 -3 38 -19z m-560 -69 c0 -8 -9 -15 -20
-15 -11 0 -20 7 -20 15 0 8 9 15 20 15 11 0 20 -7 20 -15z"/>
<path d="M4101 1665 c-7 -22 -14 -74 -16 -115 -2 -41 -1 -64 1 -50 13 61 44
45 44 -22 0 -40 -16 -59 -32 -37 -6 9 -8 -9 -4 -53 3 -38 1 -68 -3 -68 -11 0
-18 37 -27 144 l-7 89 -91 -7 c-90 -6 -359 -35 -363 -39 -1 -1 2 -36 8 -76 8
-70 7 -92 -7 -78 -3 3 -10 43 -16 89 -9 75 -14 87 -50 131 -22 26 -42 46 -43
45 -5 -5 34 -361 40 -366 2 -3 30 2 62 11 115 32 252 48 407 47 l151 -2 -2 34
c-3 43 -33 329 -37 348 -1 8 -8 -3 -15 -25z m-533 -230 c4 -43 -13 -69 -28
-45 -11 17 -13 74 -3 84 15 14 28 -2 31 -39z"/>
<path d="M3540 1435 c0 -14 5 -25 10 -25 6 0 10 11 10 25 0 14 -4 25 -10 25
-5 0 -10 -11 -10 -25z"/>
<path d="M3797 1611 l-249 -26 27 -25 c15 -14 36 -24 48 -22 12 1 112 11 221
22 110 11 203 23 207 27 15 17 20 53 7 52 -7 -1 -125 -14 -261 -28z"/>
<path d="M3457 1591 c-4 -20 -3 -39 3 -45 17 -17 23 1 13 41 l-9 38 -7 -34z"/>
<path d="M3080 1539 c-97 -24 -127 -28 -192 -23 -74 5 -88 2 -350 -72 -150
-42 -277 -81 -283 -86 -15 -13 208 -9 355 7 147 15 287 47 396 90 77 30 194
95 194 107 0 4 -1 8 -2 7 -2 0 -55 -14 -118 -30z"/>
<path d="M1133 1532 c-79 -3 -82 -4 -107 -36 -50 -66 -71 -359 -63 -875 6
-339 13 -450 37 -568 l11 -53 90 0 c49 0 89 3 89 6 0 4 -8 81 -17 173 -13 123
-17 263 -18 541 0 397 4 454 51 655 38 169 37 162 22 161 -7 -1 -50 -2 -95 -4z"/>
<path d="M4100 1491 c0 -16 5 -33 10 -36 6 -4 10 6 10 24 0 16 -4 33 -10 36
-6 4 -10 -6 -10 -24z"/>
<path d="M375 1447 c-29 -76 -81 -265 -77 -279 4 -16 18 -18 156 -19 83 -1
214 -5 291 -8 121 -7 101 -8 -152 -9 -160 -1 -294 -5 -297 -10 -2 -4 -7 -102
-11 -217 -6 -170 -4 -227 9 -299 8 -49 17 -91 20 -93 2 -2 143 -6 314 -7 l309
-4 6 362 c4 216 12 405 21 471 7 61 13 111 12 111 0 1 -135 4 -299 7 -230 5
-299 4 -302 -6z"/>
<path d="M3476 1413 c-17 -87 -25 -161 -30 -273 -3 -69 -10 -202 -15 -297 -5
-95 -7 -228 -5 -295 5 -131 32 -430 41 -454 6 -15 108 -21 116 -7 3 5 1 37 -4
73 -5 36 -20 175 -34 310 -20 202 -23 261 -15 330 14 123 13 143 -14 183 -19
27 -27 60 -36 133 -11 95 -11 98 10 114 20 15 21 19 9 110 -6 52 -12 96 -14
98 -2 2 -6 -9 -9 -25z"/>
<path d="M4170 1393 c0 -68 9 -90 35 -97 20 -5 24 -14 30 -71 l7 -65 43 0 c36
0 43 3 48 23 3 12 19 70 36 130 17 59 31 112 31 117 0 6 -46 10 -115 10 l-115
0 0 -47z"/>
<path d="M4406 1374 c-42 -142 -56 -205 -55 -258 l0 -61 18 68 c18 69 56 123
92 129 16 3 16 8 -8 63 -30 71 -39 83 -47 59z"/>
<path d="M3860 1279 c-109 -9 -218 -31 -307 -60 l-62 -20 6 -67 c3 -37 7 -69
9 -71 1 -2 60 12 131 30 127 34 130 34 355 34 l228 0 0 26 c0 14 -3 47 -6 72
l-7 46 -51 5 c-112 12 -206 13 -296 5z"/>
<path d="M4431 1206 c-67 -72 -68 -315 -1 -445 18 -37 66 -88 74 -80 6 5 -13
88 -25 111 -5 10 -9 25 -9 33 0 8 -4 15 -10 15 -15 0 -12 67 4 73 24 9 27 74
5 125 -17 39 -20 59 -14 120 4 39 5 72 3 72 -3 0 -15 -11 -27 -24z"/>
<path d="M4476 1189 c-11 -56 -6 -106 14 -154 17 -40 18 -52 9 -98 -7 -29 -17
-56 -23 -60 -8 -6 -8 -10 2 -14 6 -2 12 -13 12 -23 0 -10 5 -22 10 -25 6 -3
10 -21 10 -40 0 -19 5 -46 10 -61 l11 -28 20 33 c19 31 19 40 9 199 -10 142
-15 177 -38 234 -15 37 -30 68 -33 68 -4 0 -9 -14 -13 -31z"/>
<path d="M4249 1135 c-3 -3 -2 -31 2 -63 4 -31 11 -83 14 -115 6 -48 11 -60
31 -69 29 -14 31 -19 40 -143 14 -171 15 -51 2 175 l-13 215 -35 3 c-20 2 -38
0 -41 -3z"/>
<path d="M4060 1103 c36 -2 69 -8 74 -13 6 -6 -30 -7 -90 -3 -119 7 -272 -9
-401 -43 -106 -27 -106 -27 -98 -14 3 6 -1 7 -9 4 -20 -8 -20 -5 6 -59 21 -43
21 -50 10 -148 -11 -95 -9 -128 25 -465 l37 -362 42 0 c23 0 44 5 46 11 4 12
107 39 151 39 22 0 27 -4 27 -25 l0 -25 105 0 105 0 0 30 c0 29 1 30 48 30 26
0 64 -3 85 -6 31 -6 37 -11 37 -30 0 -19 5 -24 25 -24 22 0 25 4 25 33 0 18 5
38 12 45 8 8 8 12 1 12 -5 0 -13 32 -16 73 -8 106 -43 203 -90 250 l-39 39
-18 176 c-13 123 -15 180 -8 191 6 9 30 32 54 51 43 34 44 36 38 85 -12 115
-16 134 -33 140 -9 4 -61 8 -116 10 -55 1 -71 0 -35 -2z m38 -411 l24 -233
-27 -34 c-25 -34 -28 -35 -98 -36 -40 0 -110 -6 -157 -13 l-84 -13 -34 31 -33
31 -25 210 c-13 116 -24 220 -24 232 0 18 8 23 53 32 105 22 174 29 277 27
l105 -1 23 -233z"/>
<path d="M3895 899 c-109 -7 -235 -27 -235 -38 1 -33 49 -404 53 -408 3 -2 47
2 99 11 51 9 137 17 191 17 l98 2 -5 36 c-7 43 -36 336 -36 361 0 23 -35 27
-165 19z m88 -49 c79 -62 84 -301 6 -325 -12 -4 -25 -3 -29 2 -10 10 -42 322
-34 334 9 15 30 10 57 -11z m-193 -14 c0 -7 7 -80 16 -161 8 -81 13 -154 10
-161 -8 -22 -30 -16 -59 14 -67 70 -78 240 -20 304 19 21 53 24 53 4z"/>
<path d="M3940 831 c0 -27 19 -220 25 -258 13 -77 65 -4 65 91 0 88 -40 186
-77 186 -7 0 -13 -9 -13 -19z"/>
<path d="M3745 816 c-48 -73 -31 -235 30 -286 8 -7 18 -10 22 -6 9 9 -16 299
-27 310 -4 4 -16 -4 -25 -18z"/>
<path d="M3920 454 c-14 -2 -62 -9 -107 -16 -46 -6 -83 -15 -83 -19 0 -17 24
-20 93 -10 56 9 179 19 248 21 4 0 9 7 13 15 4 13 -6 15 -67 14 -40 -1 -83 -3
-97 -5z"/>
<path d="M2652 878 c-7 -7 -12 -39 -12 -75 0 -53 3 -64 21 -73 11 -7 23 -10
25 -7 3 2 7 34 11 70 4 47 2 71 -7 82 -15 18 -22 19 -38 3z"/>
<path d="M4366 775 c6 -115 8 -121 36 -151 l29 -31 9 -219 c5 -120 9 -254 10
-296 0 -76 1 -78 25 -78 l25 0 0 308 c0 169 3 317 6 330 5 16 2 22 -9 22 -30
0 -85 77 -111 157 l-26 78 6 -120z"/>
<path d="M4254 804 c4 -43 9 -104 12 -134 3 -40 2 -49 -5 -33 -5 11 -13 64
-17 117 -4 53 -10 98 -13 101 -4 2 -21 -9 -38 -25 -27 -25 -31 -35 -27 -67 3
-21 11 -97 18 -168 14 -127 15 -131 49 -168 44 -46 75 -126 91 -236 10 -72 15
-85 34 -92 12 -5 22 -7 22 -6 0 13 -71 702 -76 735 -3 23 -10 42 -14 42 -5 0
-16 3 -26 7 -16 6 -16 0 -10 -73z"/>
<path d="M1767 818 c4 -13 7 -37 7 -54 l0 -32 90 3 c50 2 209 4 352 4 l262 1
-9 37 c-10 46 -2 55 42 51 31 -3 34 -6 37 -37 2 -20 -2 -37 -10 -42 -9 -6 -2
-9 18 -9 17 0 36 -6 41 -12 6 -7 13 -53 17 -103 3 -49 20 -209 36 -355 17
-146 30 -266 30 -267 0 -2 14 -3 30 -3 37 0 37 -30 1 375 -18 200 -33 321 -40
323 -35 12 -54 41 -59 90 l-5 52 -424 0 -424 0 8 -22z m101 -30 l3 -38 -40 0
-41 0 0 41 0 40 38 -3 c35 -3 37 -5 40 -40z m124 7 c2 -20 2 -38 -1 -40 -2 -3
-22 -5 -43 -5 -38 0 -38 0 -38 40 0 40 0 40 39 40 37 0 39 -2 43 -35z m228 18
c0 -10 3 -28 6 -40 6 -21 3 -23 -40 -23 l-46 0 0 40 0 40 40 0 c31 0 40 -4 40
-17z m206 -8 c10 -40 -1 -55 -41 -55 -34 0 -35 1 -35 40 0 39 1 40 35 40 29 0
36 -4 41 -25z"/>
<path d="M1703 819 c-6 -6 -9 -31 -7 -58 4 -44 22 -275 46 -604 12 -154 12
-157 35 -157 14 0 23 6 23 15 0 8 -12 169 -26 357 -15 189 -27 363 -28 388 -3
64 -18 84 -43 59z"/>
<path d="M1848 713 c-43 -2 -78 -7 -78 -11 0 -4 11 -151 25 -326 14 -175 25
-332 25 -347 0 -26 3 -29 35 -29 28 0 35 4 35 19 0 24 25 45 45 37 16 -6 19 3
9 28 -5 12 -10 14 -19 6 -21 -17 -46 0 -43 29 2 18 10 27 26 29 32 5 27 28 -5
27 -23 0 -28 4 -28 25 0 18 6 26 23 28 20 3 22 8 20 60 l-3 57 347 5 c190 3
349 8 353 11 3 4 -2 85 -12 180 l-18 174 -330 1 c-182 0 -365 -1 -407 -3z
m682 -10 c0 -5 7 -51 15 -103 8 -52 15 -107 15 -121 l0 -26 -331 -7 c-183 -4
-335 -4 -340 1 -11 12 -49 237 -41 245 12 12 682 23 682 11z"/>
<path d="M2055 680 c-118 -3 -189 -9 -188 -15 13 -81 34 -200 37 -202 2 -2
146 0 321 3 l317 7 -6 46 c-3 25 -11 74 -17 109 l-11 62 -132 -2 c-72 -1 -216
-5 -321 -8z"/>
<path d="M2968 701 c-42 -3 -79 -9 -82 -12 -6 -5 24 -471 40 -627 7 -70 18
-77 58 -37 32 32 70 32 102 0 17 -17 36 -25 59 -25 l35 0 -5 43 c-3 23 -12
155 -20 292 -8 138 -18 278 -21 313 l-6 62 -42 -2 c-22 -1 -76 -4 -118 -7z
m47 -47 c26 -11 46 -59 35 -88 -18 -49 -68 -59 -105 -21 -33 32 -32 68 1 94
28 22 42 25 69 15z m33 -180 c27 -18 30 -69 5 -96 -20 -22 -70 -23 -95 -1 -22
20 -23 70 -1 95 20 22 61 23 91 2z m21 -180 c12 -15 21 -32 21 -39 0 -7 -9
-24 -21 -39 -39 -49 -119 -22 -119 41 0 63 80 87 119 37z"/>
<path d="M2956 624 c-23 -23 -20 -51 8 -69 52 -34 97 35 48 73 -21 16 -37 15
-56 -4z"/>
<path d="M2974 462 c-19 -13 -23 -39 -8 -61 17 -23 53 -28 72 -9 37 37 -21
100 -64 70z"/>
<path d="M2982 288 c-7 -7 -12 -21 -12 -33 0 -29 19 -45 52 -45 17 0 31 7 38
21 24 43 -43 92 -78 57z"/>
<path d="M1350 693 c0 -19 51 -611 56 -650 5 -40 7 -43 36 -43 20 0 37 8 50
25 11 15 30 25 44 25 14 0 36 -11 50 -25 14 -14 34 -25 45 -25 18 0 19 5 14
63 -4 34 -17 187 -29 340 -13 153 -25 279 -27 281 -9 8 -239 17 -239 9z m184
-39 c55 -54 0 -144 -69 -112 -42 19 -50 96 -12 120 20 13 65 9 81 -8z m0 -150
c9 -3 16 -13 16 -22 0 -12 -3 -13 -12 -4 -31 31 -98 -11 -82 -52 16 -41 70
-40 93 2 14 24 25 8 12 -17 -27 -50 -90 -49 -114 2 -16 32 -8 74 16 89 15 9
50 10 71 2z m21 -189 c30 -30 31 -54 4 -89 -24 -30 -58 -34 -87 -8 -32 26 -37
63 -12 95 27 34 63 35 95 2z"/>
<path d="M1462 638 c-35 -35 4 -101 47 -79 32 18 39 51 15 75 -18 19 -45 21
-62 4z"/>
<path d="M1474 295 c-15 -23 -15 -27 0 -50 19 -29 47 -32 70 -9 21 21 20 47
-2 67 -26 24 -49 21 -68 -8z"/>
<path d="M3160 635 c0 -33 9 -186 20 -340 11 -154 20 -283 20 -287 0 -5 9 -8
20 -8 25 0 25 -10 -1 360 -18 262 -22 297 -40 315 -19 19 -19 19 -19 -40z"/>
<path d="M1617 633 c1 -16 12 -145 23 -288 25 -328 28 -345 46 -345 18 0 18
-27 -11 320 -22 265 -34 340 -55 340 -4 0 -5 -12 -3 -27z"/>
<path d="M4350 615 c0 -21 45 -451 56 -537 5 -33 3 -48 -5 -48 -6 0 -11 -7
-11 -15 0 -9 9 -15 21 -15 21 0 22 2 16 107 -4 60 -10 189 -13 287 -7 178 -7
179 -35 210 -25 27 -28 28 -29 11z"/>
<path d="M322 293 c3 -110 8 -205 12 -211 5 -9 94 -12 323 -12 l315 0 -6 43
c-3 23 -10 114 -17 202 -6 88 -12 161 -14 163 -1 1 -141 6 -310 9 l-308 6 5
-200z m188 -23 c0 -98 -4 -150 -10 -150 -6 0 -24 7 -40 15 -37 19 -42 47 -31
169 9 102 15 116 59 116 22 0 22 -1 22 -150z m287 28 c6 -94 -12 -152 -45
-146 -15 3 -17 18 -15 122 2 144 6 158 34 129 17 -16 22 -38 26 -105z m55 -30
c4 -138 2 -160 -13 -137 -12 19 -11 269 0 269 5 0 11 -60 13 -132z m-168 100
c22 -30 20 -60 -4 -86 -20 -22 -64 -29 -86 -14 -33 22 -39 76 -12 110 18 21
85 15 102 -10z"/>
<path d="M460 374 c-6 -14 -10 -67 -10 -119 0 -90 5 -105 36 -105 2 0 4 56 4
125 0 124 -9 155 -30 99z"/>
<path d="M750 291 c0 -56 4 -103 10 -106 6 -3 10 2 11 12 0 10 3 29 5 43 7 36
-6 150 -17 150 -5 0 -9 -45 -9 -99z"/>
<path d="M589 349 c-28 -52 36 -93 76 -49 15 17 16 24 7 45 -15 33 -66 35 -83
4z"/>
<path d="M2260 333 c-173 -2 -317 -7 -321 -11 -4 -4 -4 -27 0 -51 5 -39 9 -44
35 -47 25 -2 28 0 24 20 -5 23 -4 23 130 30 74 3 200 6 279 6 136 0 143 -1
143 -20 0 -11 6 -20 14 -20 8 0 21 -3 30 -6 12 -5 16 0 16 19 0 44 -12 87 -24
85 -6 -2 -153 -4 -326 -5z"/>
<path d="M2020 230 c0 -29 17 -163 26 -208 4 -22 6 -22 184 -22 113 0 180 4
180 10 0 6 28 10 65 10 l65 0 0 53 c0 28 -3 82 -7 120 l-6 67 -253 0 -254 0 0
-30z"/>
<path d="M2595 149 c-4 -6 -13 -8 -21 -5 -9 3 -14 -1 -14 -12 0 -12 9 -17 30
-18 25 -1 30 3 30 22 0 25 -14 32 -25 13z"/>
<path d="M1960 120 c0 -15 7 -20 25 -20 18 0 25 5 25 20 0 15 -7 20 -25 20
-18 0 -25 -5 -25 -20z"/>
<path d="M1723 55 c0 -33 2 -45 4 -27 2 18 2 45 0 60 -2 15 -4 0 -4 -33z"/>
<path d="M2642 85 c0 -16 2 -22 5 -12 2 9 2 23 0 30 -3 6 -5 -1 -5 -18z"/>
<path d="M341 52 c-4 -1 -6 -14 -3 -27 l4 -25 325 0 324 0 -7 23 c-3 12 -7 23
-8 24 -2 3 -626 8 -635 5z"/>
<path d="M4330 41 c0 -21 13 -41 26 -41 17 0 17 5 4 31 -11 20 -30 26 -30 10z"/>
<path d="M4110 20 c0 -18 7 -20 65 -20 49 0 65 3 65 14 0 17 -31 26 -87 26
-36 0 -43 -3 -43 -20z"/>
<path d="M1517 24 c-15 -15 -6 -24 24 -24 20 0 29 4 27 13 -5 14 -40 21 -51
11z"/>
<path d="M2588 23 c-29 -7 -20 -23 13 -23 19 0 29 4 27 12 -5 14 -17 17 -40
11z"/>
<path d="M3007 23 c-15 -15 -5 -23 28 -23 36 0 47 13 19 24 -20 8 -39 8 -47
-1z"/>
<path d="M3803 23 c-49 -6 -40 -23 12 -23 33 0 45 4 45 15 0 8 -6 14 -12 13
-7 0 -28 -3 -45 -5z"/>
</g>
</svg>
