<?xml version="1.0" encoding="UTF-8"?>
<svg width="1237px" height="234px" viewBox="0 0 1237 234" version="1.1" xmlns="http://www.w3.org/2000/svg" xmlns:xlink="http://www.w3.org/1999/xlink">
    <title>VANISH 2</title>
    <defs>
        <linearGradient x1="91.0860449%" y1="49.4486865%" x2="50%" y2="51.7685798%" id="linearGradient-1">
            <stop stop-color="#69A0ED" offset="0%"></stop>
            <stop stop-color="#3867D6" offset="100%"></stop>
        </linearGradient>
    </defs>
    <g id="Page-1" stroke="none" stroke-width="1" fill="none" fill-rule="evenodd">
        <g id="VANISH-2" transform="translate(0.000000, 0.218967)" fill="url(#linearGradient-1)" fill-rule="nonzero">
            <path d="M77.8830084,10.7810325 L83.3997214,151.22361 L153.818942,10.7810325 L233,10.7810325 L114.552925,222.781033 L21.7423398,222.781033 L0,10.7810325 L77.8830084,10.7810325 Z M248.339623,222.781033 L265.610512,188.635374 L336.892183,188.635374 L339.090296,222.781033 L411,222.781033 L385.56469,10.7810325 L297.640162,10.7810325 L178,222.781033 L248.339623,222.781033 Z M326,137.781033 L284,137.781033 L321.153846,52.7810325 L326,137.781033 Z M500.508906,222.781033 L526.361323,110.24882 L574.834606,222.781033 L637.203562,222.781033 L686,10.7810325 L617.491094,10.7810325 L591.961832,123.313245 L543.811705,10.7810325 L480.796438,10.7810325 L432,222.781033 L500.508906,222.781033 Z M741.267196,222.781033 L792,10.7810325 L715.732804,10.7810325 L665,222.781033 L741.267196,222.781033 Z M874.620369,232.617602 C890.368342,232.892483 904.574952,231.224391 917.2402,227.613325 C929.905448,224.002258 940.708049,218.805109 949.648002,212.021878 C958.587955,205.238646 965.505974,196.970123 970.402059,187.216308 C975.298144,177.462493 977.849202,166.683818 978.055233,154.880282 C978.225119,145.147543 976.796712,136.733332 973.770014,129.63765 C970.743315,122.541969 966.437802,116.511464 960.853475,111.546137 C955.269148,106.58081 948.568907,102.372789 940.752755,98.9220751 C932.936602,95.4713611 924.324014,92.5246019 914.914991,90.0817975 L914.914991,90.0817975 L890.766128,83.7567117 C882.819687,81.7537221 877.554919,79.538613 874.971825,77.1113843 C872.38873,74.6841557 871.127907,71.710365 871.189355,68.1900124 C871.272491,63.4271823 873.2789,59.7854221 877.208582,57.2647317 C881.138264,54.7440413 886.777632,53.5478352 894.126686,53.6761135 C903.365497,53.8373775 910.049389,55.9736862 914.178364,60.0850396 C918.307339,64.196393 920.943912,69.576338 922.088083,76.2248747 L922.088083,76.2248747 L991.818825,70.2956076 C991.011138,56.4029512 987.744483,45.0048708 982.018859,36.1013667 C976.293236,27.1978625 968.961188,20.0788164 960.022715,14.7442282 C951.084242,9.4096401 941.382851,5.6670908 930.918541,3.51658033 C920.454231,1.36606985 910.182725,0.202852408 900.104023,0.0269280022 C885.615888,-0.225963332 872.304374,1.30239593 860.16948,4.6120058 C848.034586,7.92161566 837.605764,12.7627894 828.883013,19.135527 C820.160261,25.5082646 813.354458,33.3644613 808.465603,42.704117 C803.576747,52.0437727 801.027496,62.718908 800.81785,74.7295229 C800.525069,91.5029679 805.489662,104.898541 815.711631,114.916243 C825.9336,124.933944 842.645673,133.148861 865.84785,139.560994 L865.84785,139.560994 L888.421914,145.858591 C895.112133,147.632511 900.012159,149.685896 903.121993,152.018748 C906.231827,154.3516 907.748791,157.692361 907.672885,162.041032 C907.571676,167.83926 904.976094,172.143949 899.886139,174.955101 C894.796183,177.766253 887.841773,179.094862 879.022909,178.940928 C869.574125,178.775999 862.310999,176.733151 857.233531,172.812384 C852.156064,168.891617 849.383698,162.266446 848.916436,152.93687 L848.916436,152.93687 L778.365519,151.7054 C778.112497,166.200969 780.522995,178.516247 785.597012,188.651234 C790.671029,198.78622 797.667333,207.090476 806.585926,213.564002 C815.504519,220.037527 825.81866,224.7747 837.528349,227.775519 C849.238038,230.776338 861.602045,232.390366 874.620369,232.617602 Z M1055.52579,222.781033 L1073.41761,143.206803 L1134.44151,143.206803 L1116.23019,222.781033 L1188.75597,222.781033 L1237,10.7810325 L1164.47421,10.7810325 L1147.86038,83.8230493 L1087.15597,83.8230493 L1103.76981,10.7810325 L1031.24403,10.7810325 L983,222.781033 L1055.52579,222.781033 Z" id="VANISH"></path>
        </g>
    </g>
</svg>